<?xml version="1.0" encoding="UTF-8" standalone="no"?>
<svg
   width="256"
   height="256"
   viewBox="0 0 83.733332 83.733333"
   version="1.1"
   xmlns="http://www.w3.org/2000/svg">
  <g transform="translate(8, 8)">
    <path
       style="fill:#ffffff;fill-opacity:1;stroke-width:0.175394;stroke-linecap:square"
       d="M 20.074227 4.5371907 C 18.133848 4.5492646 16.343443 5.5830057 15.362886 7.2574381 L 15.32878 7.3163492 L 1.6045532 31.088025 L 1.56993 31.147452 C 1.0984875 31.976177 0.85060074 32.913231 0.85059407 33.866666 C 0.85060113 34.820102 1.0984879 35.757158 1.56993 36.58588 L 1.6045532 36.645825 L 15.323096 60.407165 L 15.32723 60.413883 L 15.345833 60.446439 C 15.34323 60.441189 15.340641 60.435669 15.338082 60.430419 C 16.317712 62.140492 18.13754 63.195602 20.108333 63.196142 L 20.10885 63.196142 L 28.36726 63.196142 A 5.4993644 5.4993644 0 0 0 33.866666 57.696736 L 33.867183 57.696736 L 33.867183 32.590775 C 34.376752 32.35559 34.944828 32.198915 35.571988 32.12052 C 36.199149 32.042125 36.904705 32.002697 37.688655 32.002697 C 38.39421 32.002697 39.060856 32.061323 39.688016 32.178914 C 40.315179 32.296508 40.92268 32.453698 41.510644 32.649686 L 42.804105 26.769942 C 42.372934 26.613152 41.843765 26.475672 41.216605 26.358081 C 40.628641 26.240487 39.961996 26.142954 39.217244 26.064559 C 38.47249 25.986164 37.688598 25.946736 36.86545 25.946736 C 35.062364 25.946736 33.220136 26.142837 31.338655 26.534814 C 29.457175 26.926789 27.928297 27.416528 26.752372 28.004492 L 26.752372 53.505261 A 4.1964951 4.1964951 0 0 1 22.621358 57.696219 C 21.045782 57.672403 19.59719 56.819991 18.812288 55.449845 C 18.814388 55.454219 18.81628 55.458389 18.818489 55.462764 L 18.803503 55.436409 L 18.799886 55.430724 L 7.6537963 36.124926 L 7.6253743 36.075834 C 7.242329 35.4025 7.0414363 34.641329 7.0414306 33.866666 C 7.0414358 33.092001 7.2423299 32.330835 7.6253743 31.657499 L 7.6537963 31.608923 L 18.804537 12.29434 L 18.832442 12.246798 C 19.629185 10.886355 21.083565 10.046397 22.660115 10.036597 L 22.715926 10.036597 L 45.045312 10.036597 C 46.647223 10.037078 48.125924 10.8947 48.921561 12.285038 C 48.919155 12.280139 48.917249 12.275468 48.914843 12.270569 L 60.078503 31.607373 L 60.106925 31.655949 C 60.490474 32.329574 60.69186 33.0915 60.691902 33.866666 C 60.691898 34.641327 60.490495 35.4025 60.107441 36.075834 L 60.079536 36.124926 L 50.374186 52.933719 A 5.4993644 5.4993644 0 0 0 47.624999 52.19733 A 5.4993644 5.4993644 0 0 0 42.125594 57.696736 A 5.4993644 5.4993644 0 0 0 47.624999 63.196142 A 5.4993644 5.4993644 0 0 0 52.581803 60.053181 A 5.4993644 5.4993644 0 0 1 52.415921 60.396829 L 66.128779 36.645825 L 66.163403 36.58588 C 66.634844 35.757158 66.88273 34.820102 66.882738 33.866666 C 66.882686 32.912612 66.634432 31.974983 66.162369 31.145902 L 66.127746 31.085957 L 52.387499 7.2868936 C 52.390343 7.2929087 52.393441 7.2989434 52.396284 7.3049804 C 51.417069 5.5937852 49.59659 4.5377832 47.624999 4.5371907 L 20.14244 4.5371907 L 20.074227 4.5371907 z" />
  </g>
</svg>
