<?xml version="1.0" encoding="UTF-8" standalone="no"?>
<!-- Created with Inkscape (http://www.inkscape.org/) -->

<svg
   width="1088.286"
   height="256"
   viewBox="0 0 287.94234 67.733333"
   version="1.1"
   id="svg1"
   inkscape:version="1.4.3 (0d15f75042, 2025-12-25)"
   sodipodi:docname="logo_h.svg"
   xmlns:inkscape="http://www.inkscape.org/namespaces/inkscape"
   xmlns:sodipodi="http://sodipodi.sourceforge.net/DTD/sodipodi-0.dtd"
   xmlns="http://www.w3.org/2000/svg"
   xmlns:svg="http://www.w3.org/2000/svg">
  <sodipodi:namedview
     id="namedview1"
     pagecolor="#505050"
     bordercolor="#eeeeee"
     borderopacity="1"
     inkscape:showpageshadow="0"
     inkscape:pageopacity="0"
     inkscape:pagecheckerboard="0"
     inkscape:deskcolor="#505050"
     inkscape:document-units="px"
     showguides="true"
     inkscape:zoom="1.0100859"
     inkscape:cx="545.00316"
     inkscape:cy="-5.4450816"
     inkscape:window-width="1920"
     inkscape:window-height="1168"
     inkscape:window-x="0"
     inkscape:window-y="0"
     inkscape:window-maximized="1"
     inkscape:current-layer="layer1">
    <sodipodi:guide
       position="6.5158871,62.988588"
       orientation="0,-1"
       id="guide14"
       inkscape:locked="false" />
    <sodipodi:guide
       position="4.7447448,54.673232"
       orientation="1,0"
       id="guide15"
       inkscape:locked="false" />
    <sodipodi:guide
       position="283.19766,44.701862"
       orientation="1,0"
       id="guide16"
       inkscape:locked="false" />
    <sodipodi:guide
       position="4.7447465,4.9320884"
       orientation="0,-1"
       id="guide18"
       inkscape:locked="false" />
  </sodipodi:namedview>
  <defs
     id="defs1" />
  <g
     inkscape:label="Capa 1"
     inkscape:groupmode="layer"
     id="layer1">
    <text
       xml:space="preserve"
       style="font-size:50.8px;line-height:4.7625px;font-family:Ubuntu;-inkscape-font-specification:'Ubuntu, @wght=700';font-variation-settings:'wght' 700;text-align:start;letter-spacing:0px;writing-mode:lr-tb;direction:ltr;text-anchor:start;opacity:0.5;fill:#7e36f4;stroke-width:0.264999;stroke-linecap:square"
       x="62.512383"
       y="116.74931"
       id="text2"><tspan
         sodipodi:role="line"
         id="tspan2"
         style="font-style:normal;font-variant:normal;font-weight:bold;font-stretch:normal;font-size:50.8px;line-height:4.7625px;font-family:Ubuntu;-inkscape-font-specification:'Ubuntu, Bold';font-variant-ligatures:normal;font-variant-caps:normal;font-variant-numeric:normal;font-variant-east-asian:normal;letter-spacing:0px;writing-mode:lr-tb;direction:ltr;stroke-width:0.265"
         x="62.512383"
         y="116.74931" /></text>
    <text
       xml:space="preserve"
       style="font-style:normal;font-variant:normal;font-weight:normal;font-stretch:normal;font-size:24.6328px;line-height:4.7625px;font-family:Ubuntu;-inkscape-font-specification:'Ubuntu, @wght=500';font-variant-ligatures:normal;font-variant-caps:normal;font-variant-numeric:normal;font-variant-east-asian:normal;font-variation-settings:'wght' 500;text-align:end;letter-spacing:0px;writing-mode:lr-tb;direction:ltr;text-anchor:end;opacity:1;fill:#2c2c2c;fill-opacity:1;stroke-width:0.264999;stroke-linecap:square"
       x="142.54716"
       y="215.63498"
       id="text7"><tspan
         sodipodi:role="line"
         id="tspan7"
         style="stroke-width:0.265"
         x="142.54716"
         y="215.63498" /></text>
    <text
       xml:space="preserve"
       style="font-style:normal;font-variant:normal;font-weight:normal;font-stretch:normal;font-size:24.6328px;line-height:4.7625px;font-family:Ubuntu;-inkscape-font-specification:'Ubuntu, @wght=500';font-variant-ligatures:normal;font-variant-caps:normal;font-variant-numeric:normal;font-variant-east-asian:normal;font-variation-settings:'wght' 500;text-align:end;letter-spacing:0px;writing-mode:lr-tb;direction:ltr;text-anchor:end;opacity:1;fill:#2c2c2c;fill-opacity:1;stroke-width:0.264999;stroke-linecap:square"
       x="24.362606"
       y="183.49709"
       id="text8"><tspan
         sodipodi:role="line"
         id="tspan8"
         style="stroke-width:0.265"
         x="24.362606"
         y="183.49709" /></text>
    <path
       id="rect59"
       style="font-variation-settings:'wght' 700;opacity:0.407702;fill:#b49ddf;fill-opacity:0.407843;stroke-width:0.113112;stroke-linecap:square"
       d="m 15.195811,39.027312 a 2.7063176,2.7063176 0 0 1 -0.120308,-0.0026 v 0.0026 z" />
    <g
       id="g1"
       transform="matrix(1.5347034,0,0,1.5347034,-2.5370298,-2.5370315)">
      <path
         id="path61"
         style="font-variation-settings:'wght' 700;fill:#0aad95;fill-opacity:1;stroke-width:0.113112;stroke-linecap:square"
         d="m 17.142059,4.7447452 c -1.25135,0.00779 -2.405981,0.6744455 -3.038342,1.7542862 l -0.022,0.037992 -8.8507475,15.3303416 -0.022328,0.03833 c -0.3040331,0.534445 -0.4638951,1.13875 -0.4638994,1.75362 4.5e-6,0.614871 0.1598666,1.219177 0.4638994,1.75362 l 0.022328,0.03865 8.8470815,15.323676 0.0026,0.0043 0.012,0.021 c -0.0017,-0.0034 -0.0034,-0.0069 -0.005,-0.01033 0.631763,1.102825 1.805369,1.783265 3.076333,1.783613 h 3.33e-4 5.325845 a 3.5465374,3.5465374 0 0 0 3.546564,-3.546564 h 3.33e-4 V 22.836488 c 0.328621,-0.151671 0.694973,-0.252711 1.099428,-0.303267 0.404456,-0.05056 0.859469,-0.07598 1.365038,-0.07598 0.455012,0 0.884931,0.03781 1.289386,0.113642 0.404458,0.07584 0.796235,0.177208 1.175412,0.3036 l 0.834153,-3.791844 c -0.278062,-0.101113 -0.619323,-0.189774 -1.023778,-0.265609 -0.379178,-0.07584 -0.809097,-0.138735 -1.289387,-0.189292 -0.480292,-0.05056 -0.985823,-0.07598 -1.516671,-0.07598 -1.162809,0 -2.350861,0.126466 -3.564227,0.379252 -1.213366,0.252784 -2.199338,0.568616 -2.957692,0.947794 v 16.445433 a 2.7063176,2.7063176 0 0 1 -2.664089,2.702747 c -1.016088,-0.01536 -1.950284,-0.565079 -2.456467,-1.448685 0.0014,0.0028 0.0026,0.0055 0.004,0.0083 l -0.0097,-0.017 -0.0023,-0.0037 L 9.1321264,25.11566 9.1137984,25.084002 C 8.8667729,24.649769 8.7372171,24.15889 8.7372132,23.65931 c 3.9e-6,-0.499581 0.1295603,-0.990456 0.3765852,-1.42469 l 0.018328,-0.03133 7.1911076,-12.4559654 0.018,-0.030658 c 0.513819,-0.877349 1.451748,-1.4190375 2.468464,-1.4253575 h 0.03599 14.40021 c 1.033072,3.102e-4 1.986685,0.5533902 2.499791,1.4500185 -0.0015,-0.00316 -0.0028,-0.00619 -0.0043,-0.00933 l 7.199439,12.4702954 0.01833,0.03133 c 0.247351,0.43442 0.377224,0.925786 0.377251,1.42569 -2e-6,0.499579 -0.129887,0.990459 -0.376918,1.424691 l -0.018,0.03166 -6.258976,10.839982 a 3.5465374,3.5465374 0 0 0 -1.772949,-0.474897 3.5465374,3.5465374 0 0 0 -3.546564,3.546564 3.5465374,3.5465374 0 0 0 3.546564,3.546564 3.5465374,3.5465374 0 0 0 3.19664,-2.026894 3.5465374,3.5465374 0 0 1 -0.106977,0.221619 l 8.843415,-15.317011 0.02233,-0.03866 c 0.304032,-0.534443 0.463893,-1.13875 0.463899,-1.75362 -3.4e-5,-0.615269 -0.160133,-1.219945 -0.464566,-1.754619 L 46.84195,21.866031 37.980872,6.5180272 c 0.0018,0.00388 0.0038,0.00777 0.0057,0.011664 -0.63153,-1.1035488 -1.805556,-1.7845639 -3.077034,-1.784946 H 17.186049 Z" />
      <g
         id="g9"
         transform="matrix(0.6448995,0,0,0.6448995,0.64963239,1.8187158)"
         style="fill:#0aad95;fill-opacity:1">
        <path
           style="font-weight:bold;font-size:57.568px;line-height:5.397px;font-family:Ubuntu;-inkscape-font-specification:'Ubuntu, Bold';text-align:end;letter-spacing:0px;text-anchor:end;fill:#0aad95;fill-opacity:1;stroke-width:0.300305;stroke-linecap:square"
           d="m 224.88586,63.196141 c -2.49461,0 -4.6822,-0.307029 -6.56276,-0.921088 -1.88055,-0.652437 -3.35813,-1.688661 -4.43273,-3.108672 -1.03623,-1.458389 -1.55434,-3.396512 -1.55434,-5.814368 0,-2.30272 0.57568,-4.144896 1.72704,-5.526528 1.18974,-1.381632 2.76327,-2.360288 4.72058,-2.935968 1.95731,-0.614059 4.04895,-0.921088 6.27491,-0.921088 1.11298,0 2.13001,0.05757 3.0511,0.172704 0.95947,0.115136 1.66947,0.249461 2.13002,0.402976 v -1.036224 c 0,-1.074603 -0.19189,-2.034069 -0.57568,-2.8784 -0.34541,-0.844331 -0.97865,-1.496768 -1.89974,-1.957312 -0.88271,-0.498923 -2.11083,-0.748384 -3.68436,-0.748384 -1.65028,0 -3.14705,0.115136 -4.4903,0.345408 -1.34325,0.230272 -2.45623,0.518112 -3.33894,0.86352 L 215.272,33.030509 c 0.92109,-0.307029 2.24515,-0.614059 3.97219,-0.921089 1.76542,-0.345408 3.64598,-0.518112 5.64167,-0.518112 3.18543,0 5.69923,0.498923 7.5414,1.496769 1.84218,0.997845 3.14706,2.398667 3.91463,4.202464 0.76757,1.803797 1.15136,3.933813 1.15136,6.390048 v 18.076352 c -1.11298,0.230272 -2.76326,0.518112 -4.95085,0.86352 -2.14921,0.383787 -4.70139,0.57568 -7.65654,0.57568 z m 0.57568,-5.871936 c 0.99784,0 1.91893,-0.01919 2.76326,-0.05757 0.84433,-0.07676 1.51596,-0.172704 2.01488,-0.28784 v -7.368704 c -0.34541,-0.115136 -0.9019,-0.211083 -1.66947,-0.28784 -0.72919,-0.115136 -1.49677,-0.172704 -2.30272,-0.172704 -1.11298,0 -2.16839,0.115136 -3.16624,0.345408 -0.95947,0.191893 -1.74623,0.57568 -2.36029,1.15136 -0.61406,0.57568 -0.92109,1.420011 -0.92109,2.532992 0,1.535147 0.49892,2.609749 1.49677,3.223808 1.03623,0.614059 2.41786,0.921088 4.1449,0.921088 z m 53.88355,5.238688 V 32.39726 h 7.48384 v 30.165633 z m 3.74192,-34.943777 c -1.22811,0 -2.30271,-0.402976 -3.2238,-1.208928 -0.92109,-0.844331 -1.38164,-1.976501 -1.38164,-3.396512 0,-1.420011 0.46055,-2.532992 1.38164,-3.338944 0.92109,-0.844331 1.99569,-1.266496 3.2238,-1.266496 1.2665,0 2.3411,0.422165 3.22381,1.266496 0.92109,0.805952 1.38163,1.918933 1.38163,3.338944 0,1.420011 -0.46054,2.552181 -1.38163,3.396512 -0.88271,0.805952 -1.95731,1.208928 -3.22381,1.208928 z"
           id="path6"
           aria-label="Ruzaani"
           sodipodi:nodetypes="sccsccsccsccsscccssssccssccccscsscsscccccscscscscs" />
        <path
           style="font-weight:bold;font-size:57.568px;line-height:5.397px;font-family:Ubuntu;-inkscape-font-specification:'Ubuntu, Bold';text-align:end;letter-spacing:0px;text-anchor:end;fill:#0aad95;fill-opacity:1;stroke-width:0.300305;stroke-linecap:square"
           d="M 85.082112,62.562893 V 23.301516 c 1.842176,-0.383787 3.780299,-0.652437 5.814368,-0.805952 2.034069,-0.191893 3.876245,-0.28784 5.526528,-0.28784 5.871932,0 10.343052,1.074603 13.413342,3.223808 3.10867,2.110827 4.66301,5.353824 4.66301,9.728993 0,2.840021 -0.67163,5.142741 -2.01488,6.90816 -1.34325,1.72704 -3.243,3.070293 -5.69923,4.02976 0.76757,0.959467 1.59271,2.072448 2.47542,3.338944 0.92109,1.266496 1.82299,2.628939 2.7057,4.087328 0.92109,1.458389 1.8038,2.955157 2.64813,4.490304 0.84433,1.535147 1.6119,3.051104 2.30272,4.547872 h -8.75034 c -0.99785,-1.842176 -2.05326,-3.665163 -3.16624,-5.46896 -1.0746,-1.842176 -2.1492,-3.588405 -3.22381,-5.238688 -1.0746,-1.650283 -2.110823,-3.070293 -3.10867,-4.260032 -0.153515,0 -0.307029,0.01919 -0.460544,0.05757 h -0.345408 -4.89328 v 14.910112 z m 7.886816,-21.185024 h 3.16624 c 2.30272,0 4.202462,-0.172704 5.699232,-0.518112 1.53515,-0.383787 2.66732,-1.036224 3.39651,-1.957312 0.76757,-0.921088 1.15136,-2.187584 1.15136,-3.799488 0,-1.535147 -0.38379,-2.744075 -1.15136,-3.626785 -0.72919,-0.921088 -1.82298,-1.573525 -3.28137,-1.957312 -1.42001,-0.383787 -3.089487,-0.57568 -5.00842,-0.57568 -0.844331,0 -1.592715,0.03838 -2.245152,0.115136 -0.652437,0.03838 -1.228117,0.07676 -1.72704,0.115136 z m 41.578522,21.818272 c -3.30057,0 -5.91032,-0.594869 -7.82925,-1.784608 -1.88055,-1.189739 -3.20462,-2.820832 -3.97219,-4.89328 -0.76757,-2.110827 -1.15136,-4.547872 -1.15136,-7.311136 V 32.39726 h 7.54141 v 15.773633 c 0,2.034069 0.1727,3.684352 0.51811,4.950848 0.38379,1.266496 1.01703,2.187584 1.89974,2.763264 0.88271,0.57568 2.05326,0.86352 3.51165,0.86352 0.88271,0 1.72704,-0.03838 2.53299,-0.115136 0.84433,-0.07676 1.51596,-0.153515 2.01488,-0.230272 V 32.39726 h 7.48384 v 29.129409 c -1.38163,0.383787 -3.18542,0.748384 -5.41139,1.093792 -2.18758,0.383787 -4.56706,0.57568 -7.13843,0.57568 z m 18.88225,-0.633248 v -4.547872 c 0.84433,-1.496768 1.86136,-3.108672 3.0511,-4.835712 1.22812,-1.72704 2.49462,-3.473269 3.79949,-5.238688 1.34325,-1.765419 2.64813,-3.434891 3.91462,-5.008416 1.30487,-1.611904 2.47542,-3.031915 3.51165,-4.260032 H 154.12051 V 32.39726 h 23.25747 v 5.123553 c -0.72919,0.844331 -1.70785,1.976501 -2.93596,3.396512 -1.18974,1.381632 -2.49462,2.935968 -3.91463,4.663008 -1.42001,1.72704 -2.84002,3.511648 -4.26003,5.353824 -1.38163,1.842176 -2.64813,3.626784 -3.79949,5.353824 h 15.25552 v 6.274912 z m 40.19678,0.633248 c -2.49461,0 -4.6822,-0.307029 -6.56275,-0.921088 -1.88056,-0.652437 -3.35814,-1.688661 -4.43274,-3.108672 -1.03623,-1.458389 -1.55434,-3.396512 -1.55434,-5.814368 0,-2.30272 0.57568,-4.144896 1.72704,-5.526528 1.18974,-1.381632 2.76327,-2.360288 4.72058,-2.935968 1.95731,-0.614059 4.04895,-0.921088 6.27491,-0.921088 1.11298,0 2.13002,0.05757 3.05111,0.172704 0.95947,0.115136 1.66947,0.249461 2.13001,0.402976 v -1.036224 c 0,-1.074603 -0.19189,-2.034069 -0.57568,-2.8784 -0.34541,-0.844331 -0.97865,-1.496768 -1.89974,-1.957312 -0.88271,-0.498923 -2.11083,-0.748384 -3.68435,-0.748384 -1.65029,0 -3.14706,0.115136 -4.49031,0.345408 -1.34325,0.230272 -2.45623,0.518112 -3.33894,0.86352 l -0.97866,-6.102208 c 0.92109,-0.307029 2.24515,-0.614059 3.97219,-0.921089 1.76542,-0.345408 3.64598,-0.518112 5.64167,-0.518112 3.18543,0 5.69923,0.498923 7.54141,1.496769 1.84217,0.997845 3.14705,2.398667 3.91462,4.202464 0.76757,1.803797 1.15136,3.933813 1.15136,6.390048 v 18.076352 c -1.11298,0.230272 -2.76326,0.518112 -4.95085,0.86352 -2.14921,0.383787 -4.70139,0.57568 -7.65654,0.57568 z m 0.57568,-5.871936 c 0.99785,0 1.91893,-0.01919 2.76326,-0.05757 0.84433,-0.07676 1.51596,-0.172704 2.01488,-0.28784 v -7.368704 c -0.34541,-0.115136 -0.9019,-0.211083 -1.66947,-0.28784 -0.72919,-0.115136 -1.49677,-0.172704 -2.30272,-0.172704 -1.11298,0 -2.16839,0.115136 -3.16624,0.345408 -0.95947,0.191893 -1.74623,0.57568 -2.36029,1.15136 -0.61406,0.57568 -0.92109,1.420011 -0.92109,2.532992 0,1.535147 0.49892,2.609749 1.49677,3.223808 1.03623,0.614059 2.41786,0.921088 4.1449,0.921088 z m 51.4657,5.238688 V 33.433485 c 1.38163,-0.383787 3.16624,-0.767574 5.35383,-1.151361 2.22596,-0.383787 4.62463,-0.57568 7.196,-0.57568 3.37732,0 5.98707,0.59487 7.82925,1.784609 1.88055,1.15136 3.18543,2.763264 3.91462,4.835712 0.76757,2.072448 1.15136,4.490304 1.15136,7.253568 v 16.98256 h -7.48384 V 46.616557 c 0,-2.034069 -0.19189,-3.665163 -0.57568,-4.89328 -0.34541,-1.266496 -0.94028,-2.168395 -1.78461,-2.705696 -0.84433,-0.57568 -2.03406,-0.86352 -3.56921,-0.86352 -0.88271,0 -1.74623,0.05757 -2.59056,0.172704 -0.80595,0.07676 -1.45839,0.153515 -1.95732,0.230272 v 24.005856 z"
           id="text3"
           aria-label="Ruzaani"
           sodipodi:nodetypes="cccscsccccscccscccccccsccsccscccsccsccscssccccccscccccccccccscccccsccsccsccsccsscccssssccssccccscsscsscccsccsccsccscccc" />
      </g>
    </g>
  </g>
</svg>
